<?xml version="1.0" standalone="no"?>
<!DOCTYPE svg PUBLIC "-//W3C//DTD SVG 20010904//EN"
 "http://www.w3.org/TR/2001/REC-SVG-20010904/DTD/svg10.dtd">
<svg version="1.0" xmlns="http://www.w3.org/2000/svg"
 width="600.000000pt" height="400.000000pt" viewBox="0 0 100.000000 755.000000"
 preserveAspectRatio="xMidYMid meet">

<g transform="translate(0.000000,755.000000) scale(0.100000,-0.100000)"
fill="#000000" stroke="none">
<path d="M3760 5405 c-488 -64 -902 -294 -1205 -670 -198 -246 -327 -530 -391
-860 -26 -132 -23 -420 4 -575 74 -409 308 -818 616 -1072 251 -208 532 -342
871 -415 120 -25 148 -28 350 -28 190 0 235 3 332 23 218 44 435 120 597 208
178 98 383 272 522 444 149 184 276 423 338 635 97 334 97 692 1 1009 -70 232
-176 427 -348 641 -181 225 -398 393 -658 508 -178 78 -371 135 -538 156 -108
14 -369 12 -491 -4z m471 -94 c188 -20 453 -103 626 -196 401 -217 709 -591
842 -1026 42 -135 63 -262 68 -420 l6 -156 -124 -5 c-68 -3 -127 -4 -131 -1
-9 5 -11 103 -3 103 3 0 24 -12 46 -27 40 -26 42 -27 55 -8 8 10 14 22 14 25
0 3 -27 36 -60 73 -72 81 -83 114 -23 67 30 -23 66 -26 82 -6 9 11 0 24 -48
66 -83 72 -98 120 -26 81 20 -11 43 -17 50 -15 32 13 22 37 -40 97 -36 35 -65
69 -65 76 0 7 3 11 8 9 4 -2 20 -10 35 -18 29 -14 56 -7 64 17 2 6 -18 35 -45
64 -27 30 -57 70 -67 89 l-18 34 -24 -29 c-13 -17 -49 -58 -80 -93 -56 -64
-63 -92 -22 -92 12 0 37 9 55 21 22 13 34 16 34 9 0 -20 -67 -104 -100 -125
-33 -22 -35 -41 -7 -59 14 -9 26 -6 58 12 75 43 62 7 -30 -82 -58 -56 -61 -60
-45 -77 23 -25 37 -24 72 6 34 29 42 31 42 11 0 -8 -27 -38 -61 -68 -45 -39
-59 -58 -54 -71 9 -22 34 -22 80 0 19 9 37 15 39 12 2 -2 1 -28 -1 -58 l-6
-53 -158 4 c-87 2 -160 6 -163 8 -2 3 -2 26 1 52 l5 47 28 -20 c30 -23 73 -22
78 1 1 8 -25 44 -58 79 -52 56 -73 91 -54 91 3 0 23 -15 45 -32 40 -32 41 -32
55 -13 20 27 19 32 -30 79 -76 74 -102 132 -39 89 50 -35 52 -35 66 -6 13 28
12 29 -70 109 l-84 82 -41 -55 c-22 -31 -54 -68 -71 -83 -55 -49 -8 -83 54
-39 l29 20 0 -23 c0 -15 -21 -42 -61 -80 -39 -38 -59 -64 -55 -73 11 -30 37
-28 83 4 25 18 48 30 50 27 11 -11 -41 -74 -100 -123 -53 -44 -22 -79 41 -47
21 10 39 20 42 21 3 2 3 -22 2 -52 l-4 -55 -159 0 -159 0 0 50 c0 28 1 50 3
50 2 0 22 -9 45 -20 81 -39 84 6 7 90 -51 56 -68 90 -45 90 6 0 10 -4 10 -8 0
-12 70 -43 81 -37 21 13 6 44 -45 94 -30 30 -57 62 -59 72 -6 24 -6 24 38 -2
37 -22 65 -20 65 5 0 7 -20 36 -45 64 -50 55 -65 87 -65 137 0 45 -16 85 -34
85 -19 0 -27 -28 -25 -77 3 -51 -20 -92 -82 -146 -35 -31 -50 -50 -46 -61 9
-22 43 -20 79 5 16 12 31 19 33 17 10 -10 -33 -73 -76 -112 -54 -49 -59 -60
-29 -76 23 -12 56 -5 83 18 15 14 17 13 17 -5 0 -12 -24 -41 -60 -72 -63 -55
-72 -74 -41 -90 14 -8 30 -5 65 14 l46 24 0 -54 0 -55 -150 0 -150 0 0 90 c0
50 3 90 8 91 22 2 45 8 50 13 14 14 -32 79 -84 118 -63 48 -187 149 -250 203
l-41 35 -72 -60 c-40 -33 -75 -60 -79 -60 -4 0 -20 -13 -37 -28 -16 -15 -72
-63 -123 -106 -51 -43 -91 -83 -89 -90 2 -6 21 -13 43 -16 l39 -5 0 -90 0 -90
-137 -3 -138 -3 0 51 c0 27 2 50 5 50 2 0 19 -9 37 -20 40 -24 61 -25 78 -4
12 13 4 24 -53 75 -42 38 -67 68 -67 82 0 20 0 20 24 -2 14 -14 33 -21 47 -19
42 6 34 36 -25 98 -57 59 -76 101 -37 80 11 -5 23 -15 26 -20 10 -17 65 -12
72 6 4 12 -12 33 -54 73 -77 72 -98 104 -78 121 8 7 12 17 8 23 -3 6 10 -2 30
-17 43 -33 48 -28 13 12 -14 15 -36 40 -50 57 -31 36 -44 27 -47 -35 -2 -64
-22 -102 -84 -162 -51 -49 -53 -53 -38 -70 20 -22 37 -23 68 -2 13 9 30 14 37
11 8 -2 -13 -31 -54 -72 -38 -38 -68 -71 -68 -75 0 -13 25 -30 44 -30 12 0 32
9 46 20 14 11 28 20 33 20 20 0 1 -25 -58 -81 -68 -65 -75 -78 -50 -99 12 -10
24 -7 65 14 l51 27 -7 -53 c-4 -29 -7 -54 -8 -55 0 0 -74 -3 -164 -5 l-162 -3
0 52 0 53 33 -20 c42 -26 74 -26 82 1 5 15 1 25 -14 35 -25 18 -111 122 -111
135 0 5 19 -5 42 -21 46 -34 81 -36 86 -6 3 13 -15 38 -57 77 -35 34 -61 67
-61 79 0 20 0 20 33 0 37 -23 60 -25 75 -7 9 10 -7 32 -66 95 -43 45 -83 82
-89 82 -5 0 -23 -18 -38 -40 -15 -22 -46 -56 -67 -76 -63 -57 -34 -114 33 -65
35 26 38 26 32 2 -3 -11 -29 -43 -59 -71 -56 -53 -63 -70 -41 -89 11 -8 25 -5
60 13 26 13 47 21 47 19 0 -17 -30 -55 -72 -93 -41 -37 -49 -50 -44 -67 10
-32 30 -34 69 -7 20 13 39 24 42 24 3 0 5 -24 3 -52 l-3 -53 -157 0 c-87 0
-158 2 -159 5 0 3 -2 26 -3 51 l-1 46 37 -25 c21 -13 44 -22 53 -18 27 10 16
43 -35 104 -28 33 -50 65 -50 71 0 6 18 0 40 -14 47 -29 56 -31 64 -9 8 20 -7
43 -63 102 -26 28 -41 53 -41 70 l0 25 23 -21 c25 -24 72 -44 81 -35 17 17 0
51 -54 107 -53 56 -72 86 -54 86 3 0 17 -9 31 -20 35 -27 63 -26 63 3 0 23
-87 141 -121 165 -19 13 -25 9 -89 -59 -72 -77 -78 -87 -58 -107 17 -17 44
-15 73 4 21 14 25 14 25 2 0 -23 -51 -84 -92 -110 -40 -24 -45 -37 -26 -56 16
-16 50 -15 74 3 24 18 34 19 34 1 0 -8 -30 -41 -67 -74 -58 -52 -65 -62 -54
-76 19 -22 37 -20 88 9 64 38 54 11 -22 -61 -36 -34 -65 -66 -65 -71 0 -6 9
-18 20 -28 18 -17 21 -16 65 10 26 15 48 25 49 23 1 -1 -2 -27 -7 -55 l-9 -53
-86 1 c-48 0 -107 4 -131 7 -54 8 -54 8 -40 187 30 381 151 681 401 997 272
343 716 580 1163 621 85 8 344 6 426 -2z m-303 -1678 l3 -53 -45 0 -46 0 0 56
0 55 43 -3 42 -3 3 -52z m227 47 c18 0 20 -5 17 -45 l-4 -45 -44 0 -44 0 0 43
c0 50 7 60 35 53 11 -3 29 -6 40 -6z m73 -268 c17 -11 33 -12 65 -6 69 14 356
11 362 -3 2 -7 -5 -15 -18 -17 -47 -10 -857 -17 -857 -8 0 6 17 13 38 17 20 3
47 13 59 20 41 27 309 24 351 -3z m-614 -17 c4 -13 -9 -15 -84 -15 -49 0 -91
4 -95 9 -6 11 28 17 111 20 47 1 63 -3 68 -14z m-315 -6 c42 -1 43 -2 16 -9
-40 -10 -200 -12 -261 -3 l-49 7 35 8 c19 3 75 5 124 2 49 -2 110 -5 135 -5z
m-580 -99 c69 -35 111 -106 111 -185 -1 -47 -49 -97 -74 -76 -11 9 -12 20 -4
47 20 76 -25 142 -105 151 -83 10 -147 -46 -147 -126 0 -39 5 -52 29 -75 39
-38 65 -32 66 16 3 76 56 95 73 26 24 -94 24 -95 -5 -116 -16 -11 -47 -25 -70
-32 -41 -12 -45 -12 -90 16 -126 78 -126 257 1 342 42 28 57 32 113 32 44 0
76 -6 102 -20z m2291 -27 c2 -2 -1 -12 -6 -21 -10 -15 -50 -18 -410 -25 -219
-4 -661 -4 -981 -1 l-583 6 0 24 c0 18 6 23 33 26 43 6 1941 -3 1947 -9z m523
-55 c7 -49 38 -82 70 -72 13 4 17 2 13 -5 -4 -6 -18 -11 -32 -11 -30 0 -32
-27 -4 -63 24 -30 27 -85 5 -93 -20 -8 -148 44 -199 80 -24 17 -69 55 -102 84
-58 52 -59 53 -44 80 18 31 52 38 201 40 l86 2 6 -42z m-639 -103 c8 -21 -3
-43 -22 -49 -10 -2 -390 -4 -847 -5 -582 0 -838 3 -858 11 -45 17 -31 42 28
49 28 3 420 7 871 7 722 2 823 0 828 -13z m322 -76 c34 -20 43 -42 24 -54 -5
-3 -14 -15 -20 -25 -9 -16 -4 -22 32 -38 56 -25 203 -135 212 -158 5 -12 1
-23 -10 -31 -24 -17 -39 -16 -55 4 -28 34 -225 157 -238 148 -5 -3 -13 -20
-16 -38 -12 -53 -23 -60 -55 -34 -15 12 -35 27 -45 32 -16 10 -11 21 51 112
38 56 73 102 78 103 5 0 24 -9 42 -21z m-2246 -99 c28 -36 59 -78 67 -95 21
-39 20 -98 -1 -131 -25 -37 -99 -68 -147 -60 l-38 6 -6 -57 c-3 -32 -7 -65 -8
-73 -3 -24 -30 -22 -62 4 l-29 24 17 54 c33 106 14 174 -34 122 -13 -14 -36
-32 -52 -40 -26 -14 -29 -13 -52 12 -14 15 -25 30 -25 33 0 3 33 31 73 61 167
125 237 184 237 198 0 9 2 13 4 11 2 -2 27 -33 56 -69z m1733 14 c20 -6 21
-14 5 -37 -12 -15 -71 -17 -687 -18 -710 -1 -707 -1 -681 41 8 13 67 16 347
21 347 6 984 1 1016 -7z m348 -164 l24 -20 -24 -18 c-69 -51 -89 -86 -55 -99
9 -3 36 4 60 15 52 26 113 37 149 28 37 -9 65 -61 65 -121 0 -64 -15 -92 -67
-129 -40 -28 -45 -29 -82 -17 -22 6 -43 16 -46 21 -11 17 15 50 40 50 37 0 55
10 70 41 11 21 12 35 5 55 -11 29 -7 29 -105 -7 -71 -26 -119 -21 -159 16 -21
20 -26 33 -26 75 0 55 19 103 47 119 29 17 79 12 104 -9z m-623 -14 c2 -10 -2
-22 -10 -27 -15 -10 -740 -12 -775 -3 -13 4 -23 14 -23 24 0 11 9 20 23 23 12
2 193 4 402 3 363 -1 380 -2 383 -20z m-1108 -151 c0 -8 -48 -229 -71 -327
-11 -49 -25 -88 -31 -88 -6 0 -25 9 -44 20 -32 21 -33 21 -18 55 8 19 14 38
14 43 0 5 -28 26 -62 46 l-63 38 -37 -21 -37 -21 -41 21 c-22 12 -40 25 -40
29 0 4 68 52 151 107 83 54 163 108 177 120 27 21 27 21 64 2 21 -11 38 -22
38 -24z m1570 -102 c52 -69 107 -140 122 -158 l27 -32 -36 -34 c-22 -22 -37
-30 -40 -22 -3 7 -34 54 -70 105 -37 51 -88 128 -114 170 l-47 77 26 10 c15 5
29 10 32 10 3 0 48 -57 100 -126z m-201 0 c6 -32 16 -127 22 -212 l10 -155
-23 -18 c-13 -10 -26 -18 -29 -18 -13 0 -316 328 -308 333 2 2 20 10 40 19
l36 16 72 -88 c40 -49 84 -99 98 -112 l26 -23 -8 115 c-13 190 -13 183 15 191
14 4 28 7 31 8 4 1 11 -25 18 -56z m-1088 -163 c22 -62 43 -119 47 -126 4 -8
19 33 36 97 l28 109 37 -6 c20 -4 39 -9 44 -13 4 -4 -2 -34 -12 -67 -26 -80
-68 -240 -77 -287 -6 -37 -8 -39 -37 -33 -17 4 -34 10 -38 14 -3 4 -28 63 -54
132 -49 128 -71 167 -78 139 -2 -8 -16 -54 -32 -104 -15 -49 -29 -96 -31 -102
-3 -11 -46 7 -83 33 -1 2 11 38 28 81 95 242 111 285 111 301 0 12 9 8 35 -19
27 -27 45 -62 76 -149z m508 17 c55 -27 96 -77 112 -138 11 -40 10 -53 -5 -93
-23 -60 -58 -102 -107 -126 -30 -16 -59 -20 -135 -20 l-97 0 7 53 c3 28 6 120
6 203 l0 150 88 -4 c63 -3 99 -10 131 -25z"/>
<path d="M3823 4897 c-83 -83 -173 -177 -199 -207 -67 -78 -74 -80 -130 -34
-125 105 -113 106 -228 -25 -53 -61 -105 -115 -116 -121 -11 -6 -38 -34 -59
-63 -83 -109 -77 -104 -99 -84 -38 35 -67 23 -128 -54 -31 -40 -77 -94 -101
-121 -48 -54 -50 -60 -27 -82 32 -33 60 -18 176 92 39 38 50 44 74 38 15 -4
40 -21 56 -39 l30 -31 75 40 c45 23 89 56 111 82 40 47 64 52 102 22 14 -11
33 -20 43 -20 9 0 17 -4 17 -9 0 -6 8 -10 18 -10 72 -3 77 -5 101 -54 28 -55
140 -162 154 -148 6 6 -4 35 -28 78 -21 37 -39 79 -41 93 -1 14 -6 36 -10 48
l-7 24 39 -20 c21 -11 66 -44 99 -72 62 -55 118 -85 141 -76 21 8 18 16 -36
132 -53 113 -65 179 -34 191 10 3 43 -14 87 -45 127 -91 242 -168 260 -175 12
-4 17 -1 17 10 0 23 -100 176 -175 268 -82 101 -86 115 -46 160 35 41 37 53
15 111 -14 37 -14 44 0 79 l17 39 45 -45 c25 -24 55 -62 66 -84 29 -58 47 -75
78 -75 35 0 40 -8 73 -111 26 -84 29 -87 125 -181 94 -93 142 -122 163 -101 7
7 5 23 -5 48 -9 21 -16 39 -16 41 0 2 44 -27 98 -63 140 -95 266 -159 193 -97
-17 14 -52 53 -78 88 -26 35 -72 91 -100 125 -54 63 -65 98 -39 120 10 9 28
-4 83 -61 39 -40 87 -86 108 -102 20 -16 52 -53 70 -82 47 -74 75 -90 150 -87
l61 3 36 -48 c95 -124 178 -162 178 -83 0 19 -28 61 -97 145 -105 127 -94 120
-176 100 -24 -5 -32 -1 -60 32 -18 22 -77 84 -132 139 -55 55 -122 124 -148
153 -27 28 -53 52 -57 52 -4 0 -48 -34 -96 -75 -49 -41 -96 -74 -104 -72 -8 1
-35 40 -60 86 -35 65 -56 91 -92 115 -26 18 -66 59 -91 92 -50 68 -153 164
-176 164 -9 0 -84 -69 -168 -153z m-397 -338 c10 -12 36 -30 56 -40 20 -10 39
-23 42 -27 3 -5 -6 -24 -20 -44 -21 -29 -23 -39 -14 -62 15 -40 12 -56 -9 -56
-29 0 -69 37 -101 94 -34 59 -37 83 -12 125 20 36 32 38 58 10z"/>
<path d="M3422 4977 c-28 -30 -28 -36 3 -70 31 -32 58 -34 85 -7 26 26 25 46
-5 75 -30 31 -55 32 -83 2z"/>
<path d="M4467 4972 c-33 -36 -11 -91 31 -78 33 11 52 86 22 86 -5 0 -15 2
-22 5 -8 3 -22 -3 -31 -13z"/>
<path d="M4560 4965 c-22 -26 6 -69 47 -73 37 -4 49 18 30 56 -15 32 -57 41
-77 17z"/>
<path d="M5366 3162 c-10 -17 59 -62 95 -62 10 0 3 39 -10 52 -11 12 -79 20
-85 10z"/>
<path d="M2867 2834 c-22 -14 -37 -32 -35 -41 2 -8 23 -29 46 -46 l44 -32 25
29 c28 33 25 70 -9 99 -26 22 -26 22 -71 -9z"/>
<path d="M3165 2505 c-16 -14 -36 -25 -42 -25 -7 0 -13 -4 -13 -8 0 -13 78
-73 83 -64 9 15 18 122 10 122 -4 -1 -21 -12 -38 -25z"/>
<path d="M3970 2185 l0 -116 53 7 c93 11 140 88 103 166 -20 42 -51 58 -111
58 l-45 0 0 -115z"/>
</g>
</svg>
